<?xml version="1.0" encoding="UTF-8" standalone="no"?>
<svg
   xmlns:dc="http://purl.org/dc/elements/1.1/"
   xmlns:cc="http://creativecommons.org/ns#"
   xmlns:rdf="http://www.w3.org/1999/02/22-rdf-syntax-ns#"
   xmlns:svg="http://www.w3.org/2000/svg"
   xmlns="http://www.w3.org/2000/svg"
   xmlns:sodipodi="http://sodipodi.sourceforge.net/DTD/sodipodi-0.dtd"
   xmlns:inkscape="http://www.inkscape.org/namespaces/inkscape"
   version="1.1"
   x="0"
   y="0"
   width="742.79504"
   height="790.29053"
   viewBox="0 0 742.79507 790.29053"
   id="svg4602"
   sodipodi:docname="isolatedcorndog.svg"
   inkscape:version="0.92.1 r15371">
  <metadata
     id="metadata4606">
    <rdf:RDF>
      <cc:Work
         rdf:about="">
        <dc:format>image/svg+xml</dc:format>
        <dc:type
           rdf:resource="http://purl.org/dc/dcmitype/StillImage" />
        <dc:title></dc:title>
      </cc:Work>
    </rdf:RDF>
  </metadata>
  <sodipodi:namedview
     pagecolor="#ffffff"
     bordercolor="#666666"
     borderopacity="1"
     objecttolerance="10"
     gridtolerance="10"
     guidetolerance="10"
     inkscape:pageopacity="0"
     inkscape:pageshadow="2"
     inkscape:window-width="1366"
     inkscape:window-height="706"
     id="namedview4604"
     showgrid="false"
     fit-margin-top="0"
     fit-margin-left="0"
     fit-margin-right="0"
     fit-margin-bottom="0"
     inkscape:zoom="0.40441911"
     inkscape:cx="382.22963"
     inkscape:cy="196.8465"
     inkscape:window-x="-8"
     inkscape:window-y="-8"
     inkscape:window-maximized="1"
     inkscape:current-layer="Layer_1" />
  <defs
     id="defs4509">
    <linearGradient
       id="Gradient_1"
       gradientUnits="userSpaceOnUse"
       x1="13141.393"
       y1="22816.705"
       x2="9847.8223"
       y2="19360.344"
       gradientTransform="matrix(0.054,0,0,0.054,-988.308,-208.085)">
      <stop
         offset="0"
         stop-color="#B58F52"
         id="stop4485" />
      <stop
         offset="0.169"
         stop-color="#FDC36B"
         id="stop4487" />
      <stop
         offset="0.42"
         stop-color="#FFD788"
         id="stop4489" />
      <stop
         offset="0.69"
         stop-color="#FDC36B"
         id="stop4491" />
      <stop
         offset="0.878"
         stop-color="#CFA25B"
         id="stop4493" />
      <stop
         offset="1"
         stop-color="#A3814B"
         id="stop4495" />
    </linearGradient>
    <linearGradient
       id="Gradient_2"
       gradientUnits="userSpaceOnUse"
       x1="10864.652"
       y1="15638.013"
       x2="18523.373"
       y2="20239.854"
       gradientTransform="matrix(0.054,0,0,0.054,-988.308,-208.085)">
      <stop
         offset="0"
         stop-color="#C0743F"
         id="stop4498" />
      <stop
         offset="0.059"
         stop-color="#CF8952"
         id="stop4500" />
      <stop
         offset="0.29"
         stop-color="#DFA069"
         id="stop4502" />
      <stop
         offset="0.729"
         stop-color="#CF8952"
         id="stop4504" />
      <stop
         offset="1"
         stop-color="#C0743F"
         id="stop4506" />
    </linearGradient>
  </defs>
  <g
     id="Layer_1"
     transform="translate(-10.505359,-37.089982)">
    <g
       id="g22623"
       transform="matrix(2.1395969,0,0,2.067211,-927.23589,37.090505)">
      <path
         d="m 785.309,369.534 c 1.242,7.991 -6.211,14.579 -13.933,12.311 -41.904,-47.465 -83.755,-94.93 -125.66,-142.395 4.644,-4.104 9.288,-8.208 13.932,-12.311 41.905,47.464 83.756,94.929 125.661,142.395 z"
         id="path22613"
         inkscape:connector-curvature="0"
         style="fill:#b5845b" />
      <path
         d="m 463.086,18.486 c -3.618,3.186 -6.858,6.642 -9.666,10.26 27.324,-16.253 61.453,-13.013 81.325,9.504 L 637.4,175.677 c 19.71,22.356 32.941,56.483 17.604,81.539 4.104,-1.836 8.154,-4.374 11.934,-7.722 28.459,-25.109 14.257,-66.635 -8.478,-92.392 L 555.806,19.674 C 533.071,-6.083 491.545,-6.623 463.086,18.486 Z"
         id="path22615"
         inkscape:connector-curvature="0"
         style="fill:#d39867" />
      <path
         d="M 637.4,175.677 534.745,38.25 c -19.872,-22.517 -54,-25.757 -81.325,-9.504 -19.548,25.056 -20.574,59.4 -0.702,81.863 l 123.608,118.905 c 19.71,22.356 51.948,39.743 78.678,27.648 15.337,-25.056 2.106,-59.183 -17.604,-81.539 z"
         id="path22617"
         inkscape:connector-curvature="0"
         style="fill:#e7a56f" />
      <path
         d="m 639.074,257.918 c -3.24,0 -6.264,-1.296 -8.478,-3.618 -4.914,-5.184 -3.888,-12.852 -2.754,-21.762 0.432,-3.024 1.08,-7.991 0.864,-10.043 -1.944,-3.024 -3.618,-3.456 -13.554,-2.16 -1.728,0.216 -3.51,0.432 -5.346,0.648 -10.044,0.972 -18.738,-1.89 -24.516,-8.046 -5.832,-6.21 -8.1,-15.228 -6.48,-25.38 0.864,-5.13 2.97,-10.476 5.184,-16.2 2.376,-5.994 6.318,-15.983 4.752,-19.277 -0.486,-1.08 -2.646,-1.836 -3.564,-2.106 -2.808,-0.864 -12.582,1.89 -18.414,3.51 -13.608,3.834 -27.703,7.775 -38.179,1.296 -3.51,-2.16 -7.992,-6.534 -9.558,-14.85 -2.052,-10.854 2.538,-22.841 7.02,-34.505 7.776,-20.411 9.234,-28.511 1.728,-33.479 0,0 -1.512,-0.864 -7.074,0.648 -5.238,1.404 -11.61,4.266 -17.82,7.02 -14.148,6.318 -27.541,12.311 -38.719,7.992 -4.968,-1.89 -8.802,-5.616 -11.07,-10.8 -2.592,-5.886 -2.214,-13.068 1.188,-21.33 6.21,-15.12 22.194,-32.886 33.481,-37.314 5.022,-1.943 10.638,0.486 12.582,5.508 1.944,5.022 -0.486,10.638 -5.508,12.582 -2.7,1.08 -9.667,6.75 -16.147,15.606 -6.804,9.288 -8.208,15.552 -7.83,17.064 0.162,0.27 0.216,0.432 0.27,0.54 0.324,0.108 2.106,0.54 7.128,-0.918 4.915,-1.458 10.585,-3.996 16.633,-6.696 15.498,-6.912 31.536,-14.094 43.578,-6.102 6.805,4.536 14.689,13.176 13.501,28.782 -0.702,9.287 -4.32,18.737 -7.831,27.863 -3.456,9.126 -7.074,18.521 -6.048,23.975 0.216,1.188 0.54,1.782 0.702,1.89 3.186,1.944 15.823,-1.566 22.627,-3.51 10.908,-3.078 21.168,-5.94 29.484,-3.348 7.344,2.322 12.474,6.426 15.282,12.258 5.238,10.962 0.216,23.651 -4.212,34.829 -1.782,4.482 -3.564,9.072 -4.104,12.15 -0.648,4.05 -0.162,7.29 1.458,8.964 1.566,1.674 4.536,2.376 8.478,1.998 1.566,-0.162 3.186,-0.378 4.752,-0.54 9.612,-1.242 24.192,-3.078 33.156,12.312 3.348,5.778 2.322,13.554 1.242,21.761 -0.27,1.89 -0.594,4.482 -0.756,6.372 1.458,1.566 2.376,3.564 2.592,5.832 0.432,5.346 -3.564,10.044 -8.91,10.476 -0.324,0.054 -0.702,0.054 -1.026,0.054 z"
         id="path22619"
         inkscape:connector-curvature="0"
         style="fill:#ffc72a" />
      <path
         d="m 649.766,250.466 c -3.294,0 -6.372,-1.296 -8.64,-3.672 -4.968,-5.238 -4.05,-12.96 -2.97,-21.923 0.378,-3.132 0.972,-8.208 0.756,-10.26 -2.214,-3.51 -4.158,-3.726 -13.986,-2.646 -1.728,0.216 -3.51,0.432 -5.4,0.54 -10.098,0.81 -18.901,-2.16 -24.786,-8.424 -5.941,-6.318 -8.317,-15.444 -6.805,-25.704 0.756,-5.238 2.862,-10.638 5.022,-16.362 2.431,-6.425 6.156,-16.091 4.483,-19.601 -0.541,-1.188 -2.647,-1.998 -3.835,-2.376 -2.862,-0.918 -12.312,1.62 -18.576,3.294 -13.662,3.672 -27.81,7.506 -38.394,0.918 -3.564,-2.214 -8.154,-6.642 -9.882,-15.066 -2.214,-11.015 2.268,-23.165 6.642,-34.937 7.614,-20.681 8.964,-28.943 1.134,-34.181 -0.486,-0.324 -2.646,-0.702 -7.182,0.486 -5.238,1.35 -11.664,4.158 -17.928,6.912 -8.424,3.672 -17.064,7.452 -24.948,8.748 -16.093,2.592 -22.789,-6.426 -25.327,-12.042 -2.754,-6.102 -2.376,-13.5 1.134,-22.086 6.21,-15.12 22.14,-32.831 33.373,-37.097 5.076,-1.944 10.8,0.594 12.744,5.67 1.944,5.076 -0.594,10.799 -5.67,12.743 -2.7,1.026 -9.666,6.696 -16.092,15.66 -6.697,9.342 -7.939,15.606 -7.507,17.064 0.27,0.54 0.432,0.702 0.432,0.702 0,0 1.512,0.756 6.913,-0.702 4.968,-1.35 11.124,-4.05 17.064,-6.642 15.606,-6.804 31.806,-13.878 44.01,-5.67 10.044,6.75 14.688,16.524 13.932,29.16 -0.594,9.396 -4.104,18.953 -7.56,28.241 -3.401,9.18 -6.912,18.684 -5.778,24.245 0.108,0.432 0.378,1.836 0.918,2.16 3.348,2.052 15.552,-1.242 22.896,-3.186 11.016,-2.969 21.384,-5.777 29.863,-2.969 7.452,2.429 12.636,6.695 15.498,12.635 5.292,11.124 0.432,23.868 -3.888,35.099 -1.728,4.482 -3.51,9.18 -3.942,12.258 -0.648,4.158 0,7.506 1.674,9.342 2.214,2.376 6.426,2.43 8.748,2.214 1.566,-0.108 3.186,-0.324 4.806,-0.486 10.26,-1.188 24.354,-2.808 33.588,12.798 3.456,5.832 2.484,13.716 1.512,22.032 -0.216,1.943 -0.54,4.589 -0.648,6.533 1.566,1.62 2.539,3.726 2.7,6.156 0.378,5.454 -3.726,10.152 -9.126,10.53 -0.27,0 -0.594,0.054 -0.864,0.054 z"
         id="path22621"
         inkscape:connector-curvature="0"
         style="fill:#c0333d" />
    </g>
  </g>
</svg>
