<?xml version="1.0" encoding="utf-8"?>

<!DOCTYPE svg PUBLIC "-//W3C//DTD SVG 1.1//EN" "http://www.w3.org/Graphics/SVG/1.1/DTD/svg11.dtd">
<svg version="1.1" id="Layer_1" xmlns="http://www.w3.org/2000/svg" xmlns:xlink="http://www.w3.org/1999/xlink" x="0px" y="0px"
	 viewBox="0 0 1700.958 1665.465" style="enable-background:new 0 0 1700.958 1665.465;" xml:space="preserve">
<g>
	<path d="M1513.211,1139.773c-26.153-30.132-56.498-59.804-65.177-98.747c-8.427-37.811,5.355-76.49,14.693-114.087
		c56.957-229.308-58.146-353.746-87.878-496.049c-15.142-72.474-9.009-147.862-20.97-220.928
		c-29.911-182.72-171.507-241.893-320.117-132.431C886.123,186.277,910.604,258.98,550.293,330.521
		c-88.995-59.945-189.737-102.376-294.802-124.167c-111.637-23.153-172.692,17.2-163.284,158.796
		c8.583,129.177,37.822,256.961,86.269,377.017c30.527,75.648,16.839,87.913-34.322,140.778
		c-179.303,185.275-73.066,498.763-60.49,575.342c2.287,13.924,0.269,32.532,19.737,46.026c1.759,1.219,13.887,5.396,14.184,6.197
		c-67.176-181.3-104.337-548.525,79.79-603.399c61.886-18.444,131.216,8.857,183.264,41.542
		c257.679,161.818,123.45,419.309-58.637,357.74c-55.016-18.603-98.227-65.393-118.658-119.756
		c-5.287-14.07-20.984-31.816-30.857-20.483c-15.51,17.803,35.984,153.011,163.002,172.846
		c49.186,7.681,101.076-2.912,148.256,12.974c73.549,24.764,114.773,106.136,185.804,137.397
		c65.406,28.785,156.223,11.175,196.793,83.733c0,0-3.499,11.757-7.51,27.81c-2.093,8.377-3.125,16.632-6.25,24.668
		c-1.385,3.562-2.051,7.989,0.434,10.893c2.477,2.896,19.459,9.475,23.947,4.731c5.93-6.268,5.238-12.255,13.439-43.876
		c1.223-4.715,10.797-40.662,15.055-47.799c31.31-52.474,76.742-96.59,130.649-125.43c187.178-100.14,320.956,47.778,305.221,172.81
		c11.295,8.527,28.921,1.05,35.493-11.483c15.008-28.622-12.236-137.591-100.549-203.312
		c127.017-222.635,129.584-237.639,158.193-244.838c32.165-8.094,60.481,28.138,60.919,61.302s-16.265,63.785-25.557,95.624
		c-32.546,111.518,41.641,242.541,154.012,272.005c12.355,2.904,23.129,1.979,30.484-7.232c3.591-4.497,5.456-10.145,5.553-15.898
		C1662.335,1396.824,1609.103,1250.256,1513.211,1139.773z M301.271,578.106c-25.164,18.839-47.112,34.551-77.022-14.31
		c-44.141-72.11-49.261-113.471-57.34-148.242c-3.901-16.789-7.783-34.537-2.703-51.013c14.845-48.147,90.31-29.854,120.538-12.506
		c19.466,11.171,88.639,40.987,91.489,112.777C378.034,510.188,334.738,553.052,301.271,578.106z M1399.294,1047.985
		c-19.502,42.996-30.047,171.926-235.49,269.912c-156.119,74.461-226.025,105.636-332.438,100.921
		c-126.388-5.599-290.687-92.215-304.433-101.02c-7.349-4.707-20.661-10.044-12.894-19.74c3.404-4.249,8.455-6.629,12.158-10.447
		c8.213-8.468,13.685-19.039,21.191-28.17c28.47-34.635,20.155-89.273,7.088-136.804c-11.924-43.375-23.141-88.586-54.138-122.915
		c-9.541-10.566-16.87-23.392-27.281-33.358c-26.542-25.408,14.757-17.001,90.736-154.833
		c32.255-58.514,58.742-95.218,70.309-228.881c3.474-40.148,9.18-86.882-5.385-125.401c-6.849-18.113-16.184-42.308-28.588-57.26
		c-29.608-35.689,50.27-51.914,69.036-57.111c80.125-22.19,164.562-32.996,184.459-32.973c11.043,0.012,17.55,0.588,26.875-7.09
		c22.926-18.877,38.197-53.313,57.781-76.244c37.987-44.482,79.245-84.793,129.319-115.42
		c31.885-19.502,79.223-48.738,118.753-42.542c105.16,16.484,173.858,228.83,120.533,371.623c-4.096,10.969-4.846,17.7,2.722,27.77
		c85.576,113.872,107.11,168.699,120.714,305.636C1440.574,876.9,1418.195,1006.313,1399.294,1047.985z"/>
	<path d="M456.336,1089.131c6.233,6.155,24.117,28.409,23.687,37.241c-0.521,10.725-11.538,20.144-22.183,16.639
		c-8.212-2.704-41.755-30.055-41.58-59.534C416.342,1069.726,440.419,1073.415,456.336,1089.131z"/>
	<path d="M364.881,1178.201c-7.345-5.237-8.654-15.525-11.611-23.041c-9.543-24.251-25.954-19.429-21.943-33.675
		c4.8-17.047,16.421-12.089,27.571-2.876c8.766,7.243,17.658,14.623,24.019,24.048c3.625,5.372,16.063,35.604,2.387,36.536
		C378.682,1179.645,370.737,1182.376,364.881,1178.201z"/>
	<path d="M285.236,1224.975c-16.857-0.608-3.845-20.258-30.489-55.574c-2.322-3.078-2.948-14.98-0.513-17.872
		c7.879-9.36,24.751,6.89,32.378,16.205C308.849,1194.893,304.295,1225.662,285.236,1224.975z"/>
	<path d="M1026.152,1178.3c-4.4-0.988-7.848-3.813-12.337-4.456c-18.762-2.687-33.961,22.843-40.255,37.065
		c-18.956,42.84-128.826,36.937-153.958-1.215c-10.923-16.583-3.617-38.579,7.147-41.85c8.716-2.649,16.488,5.584,22.814,12.138
		c22.334,23.138,60.924,35.443,89.487,15.939c15.178-10.364,19.441-24.802,24.852-41.253c8.683-26.4-3.987-64.117-3.675-78.946
		c0.522-24.79-76.71-7.925-85.986-47.513c-2.777-11.85,3.329-23.97,10.711-33.647c47.18-61.85,141.029-54.294,153.57-24.207
		c8.111,19.46-13.151,46.409-24.854,70.349c-10.421,21.317-10.733,42.461-6.508,65.432c8.24,44.795,104.281,48.515,114.044,10.036
		c3.174-12.509,5.44-25.328,4.856-38.549c-0.809-18.365,24.469-18.029,36.445-13.585c17.88,6.634,9.067,32.536,8.253,46.999
		c-1.489,26.459-12.642,27.368-34.465,47.374c-8.485,7.778-15.621,16.287-27.586,18.448
		C1090.336,1180.177,1037.451,1180.838,1026.152,1178.3z"/>
	<path d="M1165.789,397.884c-21.478-4.91-35.042-12.902-108.763-50.389c-26.837-13.646-80.673-20.143-36.401-87.37
		c24.263-36.844,56.284-74.62,94.725-97.025c25.309-14.751,60.416-26.014,88.841-13.614c18.62,8.125,26.483,29.966,30.368,48.385
		c5.297,25.112,11.916,49.994,13.473,75.765C1252.245,343.339,1234.676,413.633,1165.789,397.884z M1161.565,183.552
		c-36.9-4.21-69.141,47.615-88.59,71.948c-22.23,27.813-6.561,34.109,19.008,54.253c32.491,25.596,84.395,46.491,96.385,48.285
		c13.16,1.969,12.985-5.815,13.009-17.403c0.066-30.823-3.791-61.637-11.22-91.544
		C1186.245,233.336,1179.019,185.543,1161.565,183.552z"/>
	<path d="M1166.532,785.708c-33.999,14.871-29.684,37.645-42.067,56.304c-16.539,24.921-75.594-27.122,6.865-72.599
		c21.582-11.903,35.962-34.673,72.665-21.82c51.524,18.043,50.424,51.761,27.029,56.366
		C1200.919,809.884,1199.209,771.416,1166.532,785.708z"/>
	<path d="M633.279,970.612c-2.789,4.104-3.766,9.821-7.137,13.623c-3.642,4.108-13.067,7.727-18.335,5.324
		c-14.615-6.668-18.012-16.788-10.953-30.893c28.664-57.276,61.815-66.413,124.579-52.86c11.553,2.495,22.771,8.339,27.733,21.337
		c4.857,12.725-12.617,19.396-22.681,18.288C710.545,943.675,674.481,909.997,633.279,970.612z"/>
	<path d="M637.908,1188.575c-5.595,8.292-19.762,13.507-21.387,13.638c-9.983,0.808-18.272-13.722-16.661-22.27
		c5.828-30.925,63.093-51.854,83.183-34.161c14.926,13.144,14.964,35.14-16.662,34.828
		C653.986,1180.488,645.872,1176.77,637.908,1188.575z"/>
	<path d="M717.365,1240.397c-0.134,10.242-9.212,14.252-17.947,15.986c-10.358,2.056-18.298,2.074-24.009,12.648
		c-4.116,7.621-13.043,13.583-21.119,16.241c-19.047,6.269-33.744-8.64-25.868-23.381c2.274-4.255,5.724-7.743,9.124-11.165
		c10.586-10.651,25.384-34.309,42.111-31.688c10.141,1.589,20.158,2.509,29.361,7.443
		C716.706,1230.601,717.476,1231.802,717.365,1240.397z"/>
	<path d="M1275.09,912.52c-10.904,4.013-21.432,14.606-33.884,12.73c-9.084-1.369-16.852-14.026-15.304-22.983
		c1.555-8.994,17.964-13.307,25.038-16.213c10.747-4.414,53.436-19.693,67.508-18.453c12.137,1.07,10.386,14.942,7.799,27.098
		c-0.27,1.269-1.226,2.85-2.317,3.415c-7.241,3.752-12.936,8.02-21.154,9.666C1293.581,909.623,1283.994,909.243,1275.09,912.52z"/>
	<path d="M668.031,1056.7c10.209,1.148,12.126,14.675,10.294,22.768c-2.564,11.323-13.866,13.272-23.274,17.568
		c-7.218,3.296-47.912,21.818-56.838,22.634c-21.661,1.98-11-16.295-2.671-24.855C615.126,1074.687,659.203,1055.707,668.031,1056.7
		z"/>
	<path d="M1296.82,1072.472c-11.681,2.792-18.075-1.341-22.346-12.816c-2.113-5.675,1.276-12.251,6.259-15.122
		c14.762-8.504,109.854,1.37,86.914,25.851C1336.173,1103.972,1337.036,1062.862,1296.82,1072.472z"/>
	<path d="M1322.282,970.236c-12.939-2.531-26.178,5.846-40.296,10.184c-6.817,2.094-12.979,0.065-18.47-2.172
		c-5.583-2.276-2.596-11.062-0.187-14.872c3.723-5.888,10.783-8.09,17.196-9.706c62.161-15.659,62.235-19.071,71.428-14.475
		c7.399,6.185,9.197,14.436,6.721,23.097c-0.961,3.362-5.687,4.732-9.737,5.523C1341.037,969.358,1333.044,969.45,1322.282,970.236z
		"/>
</g>
</svg>
